<svg width="170" height="202" viewBox="0 0 170 202" fill="none" xmlns="http://www.w3.org/2000/svg">
<path d="M84.9997 8.71037C85.8123 8.71037 86.4711 8.0516 86.4711 7.23897C86.4711 6.42634 85.8123 5.76758 84.9997 5.76758C84.1871 5.76758 83.5283 6.42634 83.5283 7.23897C83.5283 8.0516 84.1871 8.71037 84.9997 8.71037Z" fill="#3D5977"/>
<path d="M72.6802 1.96186C73.2219 1.96186 73.6611 1.52268 73.6611 0.980931C73.6611 0.439178 73.2219 0 72.6802 0C72.1384 0 71.6992 0.439178 71.6992 0.980931C71.6992 1.52268 72.1384 1.96186 72.6802 1.96186Z" fill="#3D5977"/>
<path d="M75.4444 18.4708C76.4578 18.4708 77.2794 17.6493 77.2794 16.6358C77.2794 15.6223 76.4578 14.8008 75.4444 14.8008C74.4309 14.8008 73.6094 15.6223 73.6094 16.6358C73.6094 17.6493 74.4309 18.4708 75.4444 18.4708Z" fill="#3D5977"/>
<path d="M84.9997 135.901C85.8123 135.901 86.4711 135.242 86.4711 134.429C86.4711 133.617 85.8123 132.958 84.9997 132.958C84.1871 132.958 83.5283 133.617 83.5283 134.429C83.5283 135.242 84.1871 135.901 84.9997 135.901Z" fill="#3D5977"/>
<path d="M63.2517 12.5492C64.0643 12.5492 64.7231 11.8905 64.7231 11.0778C64.7231 10.2652 64.0643 9.60645 63.2517 9.60645C62.439 9.60645 61.7803 10.2652 61.7803 11.0778C61.7803 11.8905 62.439 12.5492 63.2517 12.5492Z" fill="#3D5977"/>
<path d="M106.75 132.074C107.562 132.074 108.221 131.415 108.221 130.602C108.221 129.79 107.562 129.131 106.75 129.131C105.937 129.131 105.278 129.79 105.278 130.602C105.278 131.415 105.937 132.074 106.75 132.074Z" fill="#3D5977"/>
<path d="M44.1228 23.5844C44.9354 23.5844 45.5942 22.9256 45.5942 22.113C45.5942 21.3004 44.9354 20.6416 44.1228 20.6416C43.3101 20.6416 42.6514 21.3004 42.6514 22.113C42.6514 22.9256 43.3101 23.5844 44.1228 23.5844Z" fill="#3D5977"/>
<path d="M125.879 121.028C126.691 121.028 127.35 120.369 127.35 119.556C127.35 118.744 126.691 118.085 125.879 118.085C125.066 118.085 124.407 118.744 124.407 119.556C124.407 120.369 125.066 121.028 125.879 121.028Z" fill="#3D5977"/>
<path d="M29.9245 40.5053C30.7372 40.5053 31.3959 39.8465 31.3959 39.0339C31.3959 38.2213 30.7372 37.5625 29.9245 37.5625C29.1119 37.5625 28.4531 38.2213 28.4531 39.0339C28.4531 39.8465 29.1119 40.5053 29.9245 40.5053Z" fill="#3D5977"/>
<path d="M140.076 104.105C140.889 104.105 141.547 103.446 141.547 102.634C141.547 101.821 140.889 101.162 140.076 101.162C139.263 101.162 138.604 101.821 138.604 102.634C138.604 103.446 139.263 104.105 140.076 104.105Z" fill="#3D5977"/>
<path d="M22.3737 61.268C23.1864 61.268 23.8451 60.6092 23.8451 59.7966C23.8451 58.984 23.1864 58.3252 22.3737 58.3252C21.5611 58.3252 20.9023 58.984 20.9023 59.7966C20.9023 60.6092 21.5611 61.268 22.3737 61.268Z" fill="#3D5977"/>
<path d="M147.627 83.3549C148.439 83.3549 149.098 82.6961 149.098 81.8835C149.098 81.0709 148.439 80.4121 147.627 80.4121C146.814 80.4121 146.155 81.0709 146.155 81.8835C146.155 82.6961 146.814 83.3549 147.627 83.3549Z" fill="#3D5977"/>
<path d="M22.3737 83.3442C23.1864 83.3442 23.8451 82.6854 23.8451 81.8728C23.8451 81.0601 23.1864 80.4014 22.3737 80.4014C21.5611 80.4014 20.9023 81.0601 20.9023 81.8728C20.9023 82.6854 21.5611 83.3442 22.3737 83.3442Z" fill="#3D5977"/>
<path d="M147.627 61.268C148.439 61.268 149.098 60.6092 149.098 59.7966C149.098 58.984 148.439 58.3252 147.627 58.3252C146.814 58.3252 146.155 58.984 146.155 59.7966C146.155 60.6092 146.814 61.268 147.627 61.268Z" fill="#3D5977"/>
<path d="M29.9245 104.105C30.7372 104.105 31.3959 103.446 31.3959 102.634C31.3959 101.821 30.7372 101.162 29.9245 101.162C29.1119 101.162 28.4531 101.821 28.4531 102.634C28.4531 103.446 29.1119 104.105 29.9245 104.105Z" fill="#3D5977"/>
<path d="M140.076 40.5053C140.889 40.5053 141.547 39.8465 141.547 39.0339C141.547 38.2213 140.889 37.5625 140.076 37.5625C139.263 37.5625 138.604 38.2213 138.604 39.0339C138.604 39.8465 139.263 40.5053 140.076 40.5053Z" fill="#3D5977"/>
<path d="M44.1228 121.028C44.9354 121.028 45.5942 120.369 45.5942 119.556C45.5942 118.744 44.9354 118.085 44.1228 118.085C43.3101 118.085 42.6514 118.744 42.6514 119.556C42.6514 120.369 43.3101 121.028 44.1228 121.028Z" fill="#3D5977"/>
<path d="M125.879 23.5932C126.691 23.5932 127.35 22.9344 127.35 22.1218C127.35 21.3092 126.691 20.6504 125.879 20.6504C125.066 20.6504 124.407 21.3092 124.407 22.1218C124.407 22.9344 125.066 23.5932 125.879 23.5932Z" fill="#3D5977"/>
<path d="M63.2517 132.074C64.0643 132.074 64.7231 131.415 64.7231 130.602C64.7231 129.79 64.0643 129.131 63.2517 129.131C62.439 129.131 61.7803 129.79 61.7803 130.602C61.7803 131.415 62.439 132.074 63.2517 132.074Z" fill="#3D5977"/>
<path d="M106.75 12.5492C107.562 12.5492 108.221 11.8905 108.221 11.0778C108.221 10.2652 107.562 9.60645 106.75 9.60645C105.937 9.60645 105.278 10.2652 105.278 11.0778C105.278 11.8905 105.937 12.5492 106.75 12.5492Z" fill="#3D5977"/>
<path d="M97.3218 141.668C97.8635 141.668 98.3027 141.229 98.3027 140.687C98.3027 140.145 97.8635 139.706 97.3218 139.706C96.78 139.706 96.3408 140.145 96.3408 140.687C96.3408 141.229 96.78 141.668 97.3218 141.668Z" fill="#3D5977"/>
<path d="M49.5346 10.3857C50.0764 10.3857 50.5156 9.94651 50.5156 9.40476C50.5156 8.86301 50.0764 8.42383 49.5346 8.42383C48.9929 8.42383 48.5537 8.86301 48.5537 9.40476C48.5537 9.94651 48.9929 10.3857 49.5346 10.3857Z" fill="#3D5977"/>
<path d="M120.466 133.246C121.008 133.246 121.447 132.807 121.447 132.265C121.447 131.723 121.008 131.284 120.466 131.284C119.925 131.284 119.485 131.723 119.485 132.265C119.485 132.807 119.925 133.246 120.466 133.246Z" fill="#3D5977"/>
<path d="M30.6596 26.2255C31.2014 26.2255 31.6406 25.7864 31.6406 25.2446C31.6406 24.7028 31.2014 24.2637 30.6596 24.2637C30.1179 24.2637 29.6787 24.7028 29.6787 25.2446C29.6787 25.7864 30.1179 26.2255 30.6596 26.2255Z" fill="#3D5977"/>
<path d="M139.34 117.409C139.882 117.409 140.321 116.97 140.321 116.428C140.321 115.886 139.882 115.447 139.34 115.447C138.799 115.447 138.359 115.886 138.359 116.428C138.359 116.97 138.799 117.409 139.34 117.409Z" fill="#3D5977"/>
<path d="M18.3481 47.5585C18.8899 47.5585 19.329 47.1194 19.329 46.5776C19.329 46.0359 18.8899 45.5967 18.3481 45.5967C17.8064 45.5967 17.3672 46.0359 17.3672 46.5776C17.3672 47.1194 17.8064 47.5585 18.3481 47.5585Z" fill="#3D5977"/>
<path d="M151.654 96.081C152.196 96.081 152.635 95.6418 152.635 95.1001C152.635 94.5583 152.196 94.1191 151.654 94.1191C151.112 94.1191 150.673 94.5583 150.673 95.1001C150.673 95.6418 151.112 96.081 151.654 96.081Z" fill="#3D5977"/>
<path d="M14.0688 71.8193C14.6106 71.8193 15.0498 71.3801 15.0498 70.8383C15.0498 70.2966 14.6106 69.8574 14.0688 69.8574C13.5271 69.8574 13.0879 70.2966 13.0879 70.8383C13.0879 71.3801 13.5271 71.8193 14.0688 71.8193Z" fill="#3D5977"/>
<path d="M155.931 71.8193C156.473 71.8193 156.912 71.3801 156.912 70.8383C156.912 70.2966 156.473 69.8574 155.931 69.8574C155.389 69.8574 154.95 70.2966 154.95 70.8383C154.95 71.3801 155.389 71.8193 155.931 71.8193Z" fill="#3D5977"/>
<path d="M18.3481 96.0722C18.8899 96.0722 19.329 95.633 19.329 95.0913C19.329 94.5495 18.8899 94.1104 18.3481 94.1104C17.8064 94.1104 17.3672 94.5495 17.3672 95.0913C17.3672 95.633 17.8064 96.0722 18.3481 96.0722Z" fill="#3D5977"/>
<path d="M151.654 47.5585C152.196 47.5585 152.635 47.1194 152.635 46.5776C152.635 46.0359 152.196 45.5967 151.654 45.5967C151.112 45.5967 150.673 46.0359 150.673 46.5776C150.673 47.1194 151.112 47.5585 151.654 47.5585Z" fill="#3D5977"/>
<path d="M30.6596 117.409C31.2014 117.409 31.6406 116.97 31.6406 116.428C31.6406 115.886 31.2014 115.447 30.6596 115.447C30.1179 115.447 29.6787 115.886 29.6787 116.428C29.6787 116.97 30.1179 117.409 30.6596 117.409Z" fill="#3D5977"/>
<path d="M139.34 26.2255C139.882 26.2255 140.321 25.7864 140.321 25.2446C140.321 24.7028 139.882 24.2637 139.34 24.2637C138.799 24.2637 138.359 24.7028 138.359 25.2446C138.359 25.7864 138.799 26.2255 139.34 26.2255Z" fill="#3D5977"/>
<path d="M49.5346 133.246C50.0764 133.246 50.5156 132.807 50.5156 132.265C50.5156 131.723 50.0764 131.284 49.5346 131.284C48.9929 131.284 48.5537 131.723 48.5537 132.265C48.5537 132.807 48.9929 133.246 49.5346 133.246Z" fill="#3D5977"/>
<path d="M120.466 10.3857C121.008 10.3857 121.447 9.94651 121.447 9.40476C121.447 8.86301 121.008 8.42383 120.466 8.42383C119.925 8.42383 119.485 8.86301 119.485 9.40476C119.485 9.94651 119.925 10.3857 120.466 10.3857Z" fill="#3D5977"/>
<path d="M72.6802 141.668C73.2219 141.668 73.6611 141.229 73.6611 140.687C73.6611 140.145 73.2219 139.706 72.6802 139.706C72.1384 139.706 71.6992 140.145 71.6992 140.687C71.6992 141.229 72.1384 141.668 72.6802 141.668Z" fill="#3D5977"/>
<path d="M97.3218 1.96186C97.8635 1.96186 98.3027 1.52268 98.3027 0.980931C98.3027 0.439178 97.8635 0 97.3218 0C96.78 0 96.3408 0.439178 96.3408 0.980931C96.3408 1.52268 96.78 1.96186 97.3218 1.96186Z" fill="#3D5977"/>
<path d="M94.5567 126.87C95.5701 126.87 96.3917 126.049 96.3917 125.035C96.3917 124.022 95.5701 123.2 94.5567 123.2C93.5432 123.2 92.7217 124.022 92.7217 125.035C92.7217 126.049 93.5432 126.87 94.5567 126.87Z" fill="#3D5977"/>
<path d="M57.4844 25.004C58.4979 25.004 59.3194 24.1825 59.3194 23.169C59.3194 22.1555 58.4979 21.334 57.4844 21.334C56.471 21.334 55.6494 22.1555 55.6494 23.169C55.6494 24.1825 56.471 25.004 57.4844 25.004Z" fill="#3D5977"/>
<path d="M112.519 120.335C113.532 120.335 114.354 119.514 114.354 118.5C114.354 117.487 113.532 116.665 112.519 116.665C111.505 116.665 110.684 117.487 110.684 118.5C110.684 119.514 111.505 120.335 112.519 120.335Z" fill="#3D5977"/>
<path d="M33.2813 53.8487C34.2948 53.8487 35.1163 53.0272 35.1163 52.0137C35.1163 51.0003 34.2948 50.1787 33.2813 50.1787C32.2679 50.1787 31.4463 51.0003 31.4463 52.0137C31.4463 53.0272 32.2679 53.8487 33.2813 53.8487Z" fill="#3D5977"/>
<path d="M136.718 91.4864C137.731 91.4864 138.553 90.6649 138.553 89.6514C138.553 88.638 137.731 87.8164 136.718 87.8164C135.704 87.8164 134.883 88.638 134.883 89.6514C134.883 90.6649 135.704 91.4864 136.718 91.4864Z" fill="#3D5977"/>
<path d="M29.9669 72.6749C30.9803 72.6749 31.8019 71.8534 31.8019 70.8399C31.8019 69.8264 30.9803 69.0049 29.9669 69.0049C28.9534 69.0049 28.1318 69.8264 28.1318 70.8399C28.1318 71.8534 28.9534 72.6749 29.9669 72.6749Z" fill="#3D5977"/>
<path d="M140.034 72.6749C141.048 72.6749 141.869 71.8534 141.869 70.8399C141.869 69.8264 141.048 69.0049 140.034 69.0049C139.021 69.0049 138.199 69.8264 138.199 70.8399C138.199 71.8534 139.021 72.6749 140.034 72.6749Z" fill="#3D5977"/>
<path d="M33.2813 91.4864C34.2948 91.4864 35.1163 90.6649 35.1163 89.6514C35.1163 88.638 34.2948 87.8164 33.2813 87.8164C32.2679 87.8164 31.4463 88.638 31.4463 89.6514C31.4463 90.6649 32.2679 91.4864 33.2813 91.4864Z" fill="#3D5977"/>
<path d="M136.718 53.8487C137.731 53.8487 138.553 53.0272 138.553 52.0137C138.553 51.0003 137.731 50.1787 136.718 50.1787C135.704 50.1787 134.883 51.0003 134.883 52.0137C134.883 53.0272 135.704 53.8487 136.718 53.8487Z" fill="#3D5977"/>
<path d="M57.4844 120.335C58.4979 120.335 59.3194 119.514 59.3194 118.5C59.3194 117.487 58.4979 116.665 57.4844 116.665C56.471 116.665 55.6494 117.487 55.6494 118.5C55.6494 119.514 56.471 120.335 57.4844 120.335Z" fill="#3D5977"/>
<path d="M112.519 25.004C113.532 25.004 114.354 24.1825 114.354 23.169C114.354 22.1555 113.532 21.334 112.519 21.334C111.505 21.334 110.684 22.1555 110.684 23.169C110.684 24.1825 111.505 25.004 112.519 25.004Z" fill="#3D5977"/>
<path d="M75.4444 126.87C76.4578 126.87 77.2794 126.049 77.2794 125.035C77.2794 124.022 76.4578 123.2 75.4444 123.2C74.4309 123.2 73.6094 124.022 73.6094 125.035C73.6094 126.049 74.4309 126.87 75.4444 126.87Z" fill="#3D5977"/>
<path d="M94.5567 18.4708C95.5701 18.4708 96.3917 17.6493 96.3917 16.6358C96.3917 15.6223 95.5701 14.8008 94.5567 14.8008C93.5432 14.8008 92.7217 15.6223 92.7217 16.6358C92.7217 17.6493 93.5432 18.4708 94.5567 18.4708Z" fill="#3D5977"/>
<path d="M85.0004 119.505C86.2147 119.505 87.199 118.52 87.199 117.306C87.199 116.092 86.2147 115.107 85.0004 115.107C83.7861 115.107 82.8018 116.092 82.8018 117.306C82.8018 118.52 83.7861 119.505 85.0004 119.505Z" fill="#3D5977"/>
<path d="M85.0004 26.5613C86.2147 26.5613 87.199 25.577 87.199 24.3627C87.199 23.1484 86.2147 22.1641 85.0004 22.1641C83.7861 22.1641 82.8018 23.1484 82.8018 24.3627C82.8018 25.577 83.7861 26.5613 85.0004 26.5613Z" fill="#3D5977"/>
<path d="M100.899 116.705C102.113 116.705 103.097 115.721 103.097 114.506C103.097 113.292 102.113 112.308 100.899 112.308C99.6846 112.308 98.7002 113.292 98.7002 114.506C98.7002 115.721 99.6846 116.705 100.899 116.705Z" fill="#3D5977"/>
<path d="M69.1039 29.3582C70.3182 29.3582 71.3025 28.3738 71.3025 27.1596C71.3025 25.9453 70.3182 24.9609 69.1039 24.9609C67.8896 24.9609 66.9053 25.9453 66.9053 27.1596C66.9053 28.3738 67.8896 29.3582 69.1039 29.3582Z" fill="#3D5977"/>
<path d="M114.876 108.638C116.091 108.638 117.075 107.654 117.075 106.44C117.075 105.226 116.091 104.241 114.876 104.241C113.662 104.241 112.678 105.226 112.678 106.44C112.678 107.654 113.662 108.638 114.876 108.638Z" fill="#3D5977"/>
<path d="M55.1244 37.4354C56.3387 37.4354 57.3231 36.451 57.3231 35.2367C57.3231 34.0224 56.3387 33.0381 55.1244 33.0381C53.9101 33.0381 52.9258 34.0224 52.9258 35.2367C52.9258 36.451 53.9101 37.4354 55.1244 37.4354Z" fill="#3D5977"/>
<path d="M130.766 81.1072C131.98 81.1072 132.965 80.1229 132.965 78.9086C132.965 77.6943 131.98 76.71 130.766 76.71C129.552 76.71 128.567 77.6943 128.567 78.9086C128.567 80.1229 129.552 81.1072 130.766 81.1072Z" fill="#3D5977"/>
<path d="M39.2348 64.9637C40.449 64.9637 41.4334 63.9793 41.4334 62.765C41.4334 61.5508 40.449 60.5664 39.2348 60.5664C38.0205 60.5664 37.0361 61.5508 37.0361 62.765C37.0361 63.9793 38.0205 64.9637 39.2348 64.9637Z" fill="#3D5977"/>
<path d="M130.766 64.9637C131.98 64.9637 132.965 63.9793 132.965 62.765C132.965 61.5508 131.98 60.5664 130.766 60.5664C129.552 60.5664 128.567 61.5508 128.567 62.765C128.567 63.9793 129.552 64.9637 130.766 64.9637Z" fill="#3D5977"/>
<path d="M39.2348 81.1072C40.449 81.1072 41.4334 80.1229 41.4334 78.9086C41.4334 77.6943 40.449 76.71 39.2348 76.71C38.0205 76.71 37.0361 77.6943 37.0361 78.9086C37.0361 80.1229 38.0205 81.1072 39.2348 81.1072Z" fill="#3D5977"/>
<path d="M114.876 37.4354C116.091 37.4354 117.075 36.451 117.075 35.2367C117.075 34.0224 116.091 33.0381 114.876 33.0381C113.662 33.0381 112.678 34.0224 112.678 35.2367C112.678 36.451 113.662 37.4354 114.876 37.4354Z" fill="#3D5977"/>
<path d="M55.1244 108.638C56.3387 108.638 57.3231 107.654 57.3231 106.44C57.3231 105.226 56.3387 104.241 55.1244 104.241C53.9101 104.241 52.9258 105.226 52.9258 106.44C52.9258 107.654 53.9101 108.638 55.1244 108.638Z" fill="#3D5977"/>
<path d="M100.899 29.3582C102.113 29.3582 103.097 28.3738 103.097 27.1596C103.097 25.9453 102.113 24.9609 100.899 24.9609C99.6846 24.9609 98.7002 25.9453 98.7002 27.1596C98.7002 28.3738 99.6846 29.3582 100.899 29.3582Z" fill="#3D5977"/>
<path d="M69.1039 116.705C70.3182 116.705 71.3025 115.721 71.3025 114.506C71.3025 113.292 70.3182 112.308 69.1039 112.308C67.8896 112.308 66.9053 113.292 66.9053 114.506C66.9053 115.721 67.8896 116.705 69.1039 116.705Z" fill="#3D5977"/>
<path d="M78.6491 37.3929C80.1342 37.3929 81.3382 36.1889 81.3382 34.7038C81.3382 33.2186 80.1342 32.0146 78.6491 32.0146C77.1639 32.0146 75.96 33.2186 75.96 34.7038C75.96 36.1889 77.1639 37.3929 78.6491 37.3929Z" fill="#3D5977"/>
<path d="M91.3931 109.407C92.7428 109.407 93.837 108.313 93.837 106.963C93.837 105.614 92.7428 104.52 91.3931 104.52C90.0434 104.52 88.9492 105.614 88.9492 106.963C88.9492 108.313 90.0434 109.407 91.3931 109.407Z" fill="#3D5977"/>
<path d="M66.7086 41.6966C68.1938 41.6966 69.3977 40.4926 69.3977 39.0075C69.3977 37.5223 68.1938 36.3184 66.7086 36.3184C65.2235 36.3184 64.0195 37.5223 64.0195 39.0075C64.0195 40.4926 65.2235 41.6966 66.7086 41.6966Z" fill="#3D5977"/>
<path d="M103.403 105.002C104.753 105.002 105.847 103.908 105.847 102.558C105.847 101.208 104.753 100.114 103.403 100.114C102.053 100.114 100.959 101.208 100.959 102.558C100.959 103.908 102.053 105.002 103.403 105.002Z" fill="#3D5977"/>
<path d="M48.3522 73.2991C49.8373 73.2991 51.0413 72.0952 51.0413 70.61C51.0413 69.1249 49.8373 67.9209 48.3522 67.9209C46.867 67.9209 45.6631 69.1249 45.6631 70.61C45.6631 72.0952 46.867 73.2991 48.3522 73.2991Z" fill="#3D5977"/>
<path d="M121.735 73.0538C123.085 73.0538 124.179 71.9596 124.179 70.6099C124.179 69.2602 123.085 68.166 121.735 68.166C120.385 68.166 119.291 69.2602 119.291 70.6099C119.291 71.9596 120.385 73.0538 121.735 73.0538Z" fill="#3D5977"/>
<path d="M66.5397 105.002C68.0248 105.002 69.2288 103.798 69.2288 102.313C69.2288 100.828 68.0248 99.624 66.5397 99.624C65.0545 99.624 63.8506 100.828 63.8506 102.313C63.8506 103.798 65.0545 105.002 66.5397 105.002Z" fill="#3D5977"/>
<path d="M103.232 41.2061C104.582 41.2061 105.676 40.1119 105.676 38.7622C105.676 37.4125 104.582 36.3184 103.232 36.3184C101.882 36.3184 100.788 37.4125 100.788 38.7622C100.788 40.1119 101.882 41.2061 103.232 41.2061Z" fill="#3D5977"/>
<path d="M78.4557 109.374C79.9409 109.374 81.1448 108.17 81.1448 106.685C81.1448 105.2 79.9409 103.996 78.4557 103.996C76.9706 103.996 75.7666 105.2 75.7666 106.685C75.7666 108.17 76.9706 109.374 78.4557 109.374Z" fill="#3D5977"/>
<path d="M91.1997 36.8711C92.5494 36.8711 93.6436 35.777 93.6436 34.4273C93.6436 33.0776 92.5494 31.9834 91.1997 31.9834C89.85 31.9834 88.7559 33.0776 88.7559 34.4273C88.7559 35.777 89.85 36.8711 91.1997 36.8711Z" fill="#3D5977"/>
<path d="M85.0006 47.6019C86.6913 47.6019 88.0618 46.2313 88.0618 44.5407C88.0618 42.85 86.6913 41.4795 85.0006 41.4795C83.31 41.4795 81.9395 42.85 81.9395 44.5407C81.9395 46.2313 83.31 47.6019 85.0006 47.6019Z" fill="#3D5977"/>
<path d="M85.0012 59.7016C86.9581 59.7016 88.5444 58.1153 88.5444 56.1584C88.5444 54.2016 86.9581 52.6152 85.0012 52.6152C83.0444 52.6152 81.458 54.2016 81.458 56.1584C81.458 58.1153 83.0444 59.7016 85.0012 59.7016Z" fill="#3D5977"/>
<path d="M85.0012 89.0542C86.9581 89.0542 88.5444 87.4678 88.5444 85.511C88.5444 83.5541 86.9581 81.9678 85.0012 81.9678C83.0444 81.9678 81.458 83.5541 81.458 85.511C81.458 87.4678 83.0444 89.0542 85.0012 89.0542Z" fill="#3D5977"/>
<path d="M85.0006 100.191C86.6913 100.191 88.0618 98.8202 88.0618 97.1295C88.0618 95.4389 86.6913 94.0684 85.0006 94.0684C83.31 94.0684 81.9395 95.4389 81.9395 97.1295C81.9395 98.8202 83.31 100.191 85.0006 100.191Z" fill="#3D5977"/>
<path d="M74.9381 49.6048C76.6288 49.6048 77.9993 48.2342 77.9993 46.5436C77.9993 44.853 76.6288 43.4824 74.9381 43.4824C73.2475 43.4824 71.877 44.853 71.877 46.5436C71.877 48.2342 73.2475 49.6048 74.9381 49.6048Z" fill="#3D5977"/>
<path d="M95.0631 98.1897C96.7538 98.1897 98.1243 96.8192 98.1243 95.1286C98.1243 93.4379 96.7538 92.0674 95.0631 92.0674C93.3725 92.0674 92.002 93.4379 92.002 95.1286C92.002 96.8192 93.3725 98.1897 95.0631 98.1897Z" fill="#3D5977"/>
<path d="M74.9381 98.1897C76.6288 98.1897 77.9993 96.8192 77.9993 95.1286C77.9993 93.4379 76.6288 92.0674 74.9381 92.0674C73.2475 92.0674 71.877 93.4379 71.877 95.1286C71.877 96.8192 73.2475 98.1897 74.9381 98.1897Z" fill="#3D5977"/>
<path d="M95.0631 49.6048C96.7538 49.6048 98.1243 48.2342 98.1243 46.5436C98.1243 44.853 96.7538 43.4824 95.0631 43.4824C93.3725 43.4824 92.002 44.853 92.002 46.5436C92.002 48.2342 93.3725 49.6048 95.0631 49.6048Z" fill="#3D5977"/>
<path d="M129.988 28.2939L97.0172 61.2651L87.4531 70.8376L97.0172 80.4101L129.988 113.373V94.2277L106.59 70.8376L129.988 47.439V28.2939Z" fill="#CBFF00"/>
<path d="M40.0234 28.2939L72.9861 61.2651L82.5586 70.8376L72.9861 80.4101L40.0234 113.373V94.2277L63.422 70.8376L40.0234 47.439V28.2939Z" fill="#CBFF00"/>
<path d="M12.8787 188.228H6.45064C6.03454 188.246 5.61913 188.179 5.22943 188.032C4.83973 187.885 4.4838 187.661 4.18307 187.373C3.88233 187.085 3.64302 186.739 3.47953 186.356C3.31604 185.973 3.23176 185.561 3.23176 185.144C3.23176 184.728 3.31604 184.315 3.47953 183.932C3.64302 183.549 3.88233 183.203 4.18307 182.915C4.4838 182.627 4.83973 182.403 5.22943 182.256C5.61913 182.109 6.03454 182.042 6.45064 182.06H10.9395L14.3316 178.668H6.45064C4.73983 178.668 3.09907 179.348 1.88934 180.557C0.679615 181.767 0 183.408 0 185.119C0 186.829 0.679615 188.47 1.88934 189.68C3.09907 190.89 4.73983 191.569 6.45064 191.569H12.8787C13.2948 191.551 13.7102 191.618 14.0999 191.765C14.4896 191.912 14.8455 192.136 15.1462 192.424C15.447 192.712 15.6863 193.058 15.8498 193.442C16.0133 193.825 16.0976 194.237 16.0976 194.653C16.0976 195.07 16.0133 195.482 15.8498 195.865C15.6863 196.248 15.447 196.594 15.1462 196.882C14.8455 197.17 14.4896 197.395 14.0999 197.542C13.7102 197.688 13.2948 197.755 12.8787 197.737H5.04857L1.65647 201.129H12.8787C14.5895 201.129 16.2302 200.45 17.44 199.24C18.6497 198.03 19.3293 196.389 19.3293 194.679C19.3293 192.968 18.6497 191.327 17.44 190.117C16.2302 188.908 14.5895 188.228 12.8787 188.228Z" fill="#A5BCD5"/>
<path d="M71.7148 178.689L58.8135 201.128H62.737L71.7148 185.519L80.6869 201.128H84.616L71.7148 178.689Z" fill="#A5BCD5"/>
<path d="M105.647 185.982C105.647 184.053 104.883 182.202 103.521 180.835C102.159 179.469 100.312 178.697 98.3823 178.689H88.8223L90.7558 182.082H98.3597C99.4003 182.082 100.398 182.495 101.134 183.231C101.87 183.967 102.283 184.964 102.283 186.005C102.283 187.046 101.87 188.044 101.134 188.779C100.398 189.515 99.4003 189.929 98.3597 189.929H95.2729L101.724 201.151H105.647L100.87 192.84C102.274 192.326 103.486 191.392 104.34 190.165C105.195 188.938 105.651 187.478 105.647 185.982Z" fill="#A5BCD5"/>
<path d="M132.292 178.691H119.391V201.129H122.783V182.06H128.956L132.348 178.668L132.292 178.691Z" fill="#A5BCD5"/>
<path d="M36.9403 191.591L24.0391 178.689V183.738L36.9403 196.639L46.4778 187.102V201.128H49.8416V178.689L36.9403 191.591Z" fill="#A5BCD5"/>
<path d="M170 178.695L161.31 187.385L158.783 189.912L161.31 192.433L170 201.128V196.08L163.832 189.912L170 183.744V178.695Z" fill="#A5BCD5"/>
<path d="M146.217 178.695L154.906 187.385L157.428 189.912L154.906 192.433L146.217 201.128V196.08L152.385 189.912L146.217 183.744V178.695Z" fill="#A5BCD5"/>
</svg>
